<svg xmlns="http://www.w3.org/2000/svg" width="53.069" height="57" viewBox="0 0 53.069 57">
  <g id="icon-svg" transform="translate(457.069 282.928)">
    <g id="Icon_feather-file" data-name="Icon feather-file" transform="translate(-461.569 -284.428)">
      <path id="Path_20" data-name="Path 20" d="M30.3,3H11.4A5.4,5.4,0,0,0,6,8.4V51.6A5.4,5.4,0,0,0,11.4,57H43.8a5.4,5.4,0,0,0,5.4-5.4V21.9Z" transform="translate(0 0)" fill="none" stroke="#fff" stroke-linecap="round" stroke-linejoin="round" stroke-width="3"/>
      <path id="Path_21" data-name="Path 21" d="M19.5,3V21.9H38.4" transform="translate(10.8 0)" fill="none" stroke="#fff" stroke-linecap="round" stroke-linejoin="round" stroke-width="3"/>
    </g>
    <rect id="Rectangle_12" data-name="Rectangle 12" width="40" height="20" rx="2" transform="translate(-444 -253.978)" fill="#fff"/>
    <path id="Path_24" data-name="Path 24" d="M-8.449-7.254h2.063c-.03-1.815-1.521-3.067-3.788-3.067-2.232,0-3.868,1.233-3.858,3.082,0,1.5,1.054,2.362,2.774,2.774l1.109.278c1.109.268,1.725.587,1.73,1.273,0,.746-.711,1.253-1.8,1.253-1.119,0-1.924-.517-1.994-1.536H-14.3c.055,2.2,1.631,3.341,4.1,3.341s3.947-1.188,3.952-3.053c0-1.7-1.283-2.6-3.053-2.993l-.915-.219c-.885-.2-1.626-.532-1.611-1.263,0-.656.582-1.138,1.636-1.138C-9.16-8.521-8.529-8.054-8.449-7.254Zm5.484-2.928H-5.357L-1.842,0H.932l3.51-10.182H2.056L-.41-2.446H-.5Zm14.81,3.291h2.188a4.141,4.141,0,0,0-4.355-3.43c-2.69,0-4.763,1.939-4.763,5.24,0,3.222,1.939,5.22,4.808,5.22a4.1,4.1,0,0,0,4.4-4.305V-5.449H9.866v1.621h2.188A2.064,2.064,0,0,1,9.732-1.765C8.116-1.765,7.1-2.973,7.1-5.1S8.156-8.417,9.712-8.417A2.051,2.051,0,0,1,11.845-6.891Z" transform="translate(-423 -238.978)" fill="#5d21d2"/>
  </g>
</svg>
