<svg id="icon-png" xmlns="http://www.w3.org/2000/svg" width="53.046" height="54.858" viewBox="0 0 53.046 54.858">
  <path id="Subtraction_2" data-name="Subtraction 2" d="M658.76,431.715H619.332a4.291,4.291,0,0,1-4.286-4.286V381.143a4.291,4.291,0,0,1,4.286-4.286H645.9c.768,0,2.109.234,4.872,2.261a53.091,53.091,0,0,1,10.012,10.012c2.026,2.762,2.26,4.1,2.26,4.871v7.714h-3.428V394h-12a1.716,1.716,0,0,1-1.714-1.715v-12H619.332a.869.869,0,0,0-.858.857v46.286a.869.869,0,0,0,.858.857H658.76a.869.869,0,0,0,.858-.857v-5.715h3.428v5.715A4.291,4.291,0,0,1,658.76,431.715Zm-9.428-49.39v8.247h8.248a51.209,51.209,0,0,0-8.248-8.247Z" transform="translate(-615.047 -376.857)" fill="#fff"/>
  <path id="Subtraction_5" data-name="Subtraction 5" d="M586.046,263.858h-36a2,2,0,0,1-2-2v-16a2,2,0,0,1,2-2h36a2,2,0,0,1,2,2v16A2,2,0,0,1,586.046,263.858Zm-7.176-15.322c-2.849,0-4.763,2.106-4.763,5.241,0,3.171,1.887,5.22,4.807,5.22a4.082,4.082,0,0,0,4.406-4.306v-1.283h-4.261v1.621h2.187a2.073,2.073,0,0,1-2.322,2.063c-1.65,0-2.634-1.247-2.634-3.335,0-2.046,1-3.316,2.615-3.316a2.063,2.063,0,0,1,2.133,1.526h2.188A4.149,4.149,0,0,0,578.87,248.536Zm-12.722,3.913h.075l4.43,6.408h1.859V248.675h-2.143v6.4h-.09l-4.395-6.4h-1.889v10.182h2.153V252.45Zm-11.221-3.774v10.182h2.153v-3.3h1.81c2.284,0,3.7-1.314,3.7-3.43a3.33,3.33,0,0,0-3.649-3.451h-4.018Zm3.614,5.155h-1.462v-3.395h1.452a1.7,1.7,0,1,1,.01,3.395Z" transform="translate(-535 -219)" fill="#fff"/>
</svg>
