<svg xmlns="http://www.w3.org/2000/svg" width="57" height="22.243" viewBox="0 0 57 22.243">
  <g id="icon-css" transform="translate(452.751 116.385)">
    <g id="icon-css-2" data-name="icon-css" transform="translate(-454.251 -123.263)">
      <path id="Path_22" data-name="Path 22" d="M24,27l9-9L24,9" transform="translate(24)" fill="none" stroke="#fff" stroke-linecap="round" stroke-linejoin="round" stroke-width="3"/>
      <path id="Path_23" data-name="Path 23" d="M12,9,3,18l9,9" fill="none" stroke="#fff" stroke-linecap="round" stroke-linejoin="round" stroke-width="3"/>
    </g>
    <path id="Path_27" data-name="Path 27" d="M-4.564-6.617a4.124,4.124,0,0,0-4.42-3.7c-2.69,0-4.743,1.9-4.743,5.23S-11.708.139-8.984.139A4.207,4.207,0,0,0-4.564-3.47l-2.178-.01A2.079,2.079,0,0,1-8.949-1.765c-1.546,0-2.6-1.148-2.6-3.326,0-2.118,1.034-3.326,2.61-3.326a2.061,2.061,0,0,1,2.192,1.8Zm7.07-.636H4.569c-.03-1.815-1.521-3.067-3.788-3.067-2.232,0-3.868,1.233-3.858,3.082,0,1.5,1.054,2.362,2.774,2.774l1.109.278c1.109.268,1.725.587,1.73,1.273,0,.746-.711,1.253-1.8,1.253-1.119,0-1.924-.517-1.994-1.536H-3.346C-3.291-.994-1.715.144.756.144S4.7-1.044,4.708-2.908C4.7-4.6,3.425-5.5,1.656-5.9L.741-6.12c-.885-.2-1.626-.532-1.611-1.263,0-.656.582-1.138,1.636-1.138C1.795-8.521,2.426-8.054,2.506-7.254Zm9.168,0h2.063c-.03-1.815-1.521-3.067-3.788-3.067-2.232,0-3.868,1.233-3.858,3.082,0,1.5,1.054,2.362,2.774,2.774l1.109.278c1.109.268,1.725.587,1.73,1.273,0,.746-.711,1.253-1.8,1.253C8.78-1.661,7.974-2.178,7.9-3.2H5.822C5.876-.994,7.452.144,9.923.144s3.947-1.188,3.952-3.053c0-1.7-1.283-2.6-3.053-2.993L9.908-6.12c-.885-.2-1.626-.532-1.611-1.263,0-.656.582-1.138,1.636-1.138C10.962-8.521,11.594-8.054,11.673-7.254Z" transform="translate(-424 -100)" fill="#fff"/>
  </g>
</svg>
