<svg xmlns="http://www.w3.org/2000/svg" xmlns:xlink="http://www.w3.org/1999/xlink" width="152" height="40" viewBox="0 0 152 40">
  <defs>
    <clipPath id="clip-img-logo">
      <rect width="152" height="40"/>
    </clipPath>
  </defs>
  <g id="img-logo" clip-path="url(#clip-img-logo)">
    <path id="Path_8" data-name="Path 8" d="M.852-14.412H6.2V0H9.844V-14.412h5.344v-3.043H.852ZM16.125,0h3.631V-7.406a2.643,2.643,0,0,1,2.778-2.719,6.107,6.107,0,0,1,1.534.2v-3.222a5.449,5.449,0,0,0-1.142-.128,3.18,3.18,0,0,0-3.145,2.472h-.136v-2.284h-3.52Zm12.46,4.909A4.723,4.723,0,0,0,33.46,1.415l5.088-14.506H34.7L31.969-3.477h-.136l-2.71-9.614H25.3L30,.375l-.213.554c-.477,1.227-1.389,1.287-2.668.895L26.3,4.534A6.267,6.267,0,0,0,28.585,4.909ZM49.943-12.435H53.48c-.051-3.111-2.608-5.259-6.494-5.259-3.827,0-6.631,2.114-6.614,5.284-.009,2.574,1.807,4.048,4.756,4.756l1.9.477c1.9.46,2.957,1.006,2.966,2.182-.009,1.278-1.219,2.148-3.094,2.148-1.918,0-3.3-.886-3.418-2.634H39.912C40.006-1.7,42.707.247,46.943.247c4.261,0,6.767-2.037,6.776-5.233-.009-2.906-2.2-4.449-5.233-5.131l-1.568-.375c-1.517-.349-2.787-.912-2.761-2.165,0-1.125,1-1.952,2.8-1.952C48.724-14.608,49.807-13.807,49.943-12.435Zm9.81,4.866a2.437,2.437,0,0,1,2.523-2.676,2.239,2.239,0,0,1,2.335,2.557V0h3.631V-8.335c.009-3.068-1.8-4.926-4.526-4.926a3.869,3.869,0,0,0-3.912,2.48h-.153v-6.673H56.122V0h3.631ZM74.838.247a4.02,4.02,0,0,0,3.827-2.062h.1V0H82.21V-8.83c0-3.119-2.642-4.432-5.557-4.432-3.136,0-5.2,1.5-5.7,3.886L74.31-9.1a2.19,2.19,0,0,1,2.327-1.509c1.236,0,1.943.622,1.943,1.7v.051c0,.844-.895.955-3.17,1.176-2.591.239-4.918,1.108-4.918,4.031C70.491-1.065,72.341.247,74.838.247Zm1.04-2.506c-1.116,0-1.918-.52-1.918-1.517,0-1.023.844-1.526,2.122-1.7a8.731,8.731,0,0,0,2.523-.588v1.389A2.512,2.512,0,0,1,75.878-2.259Zm9.153,7.168h3.631V-2.1h.111A3.869,3.869,0,0,0,92.489.213c2.983,0,5.31-2.361,5.31-6.741,0-4.5-2.429-6.733-5.3-6.733a3.857,3.857,0,0,0-3.724,2.369h-.162v-2.2h-3.58ZM88.585-6.545c0-2.335.989-3.827,2.753-3.827,1.8,0,2.753,1.56,2.753,3.827,0,2.284-.972,3.869-2.753,3.869C89.591-2.676,88.585-4.21,88.585-6.545Zm17.591,6.8c3.239,0,5.42-1.577,5.932-4.006l-3.358-.222a2.465,2.465,0,0,1-2.514,1.517,2.846,2.846,0,0,1-2.966-3.153v-.009h8.915v-1c0-4.449-2.693-6.648-6.153-6.648-3.852,0-6.349,2.736-6.349,6.776C99.682-2.335,102.145.256,106.176.256ZM103.27-7.866a2.765,2.765,0,0,1,2.821-2.685,2.58,2.58,0,0,1,2.676,2.685Z" transform="translate(39 28)" fill="#fff"/>
    <g id="Icon_feather-pen-tool" data-name="Icon feather-pen-tool" transform="translate(12.401 15)">
      <path id="Path_2" data-name="Path 2" d="M18,23.6,23.6,18,26,20.4,20.4,26Z" transform="translate(-7 -7)" fill="none" stroke="#fff" stroke-linecap="round" stroke-linejoin="round" stroke-width="1.8"/>
      <path id="Path_3" data-name="Path 3" d="M15.8,11.8l-1.2-6L3,3,5.8,14.6l6,1.2Z" transform="translate(0 0)" fill="none" stroke="#fff" stroke-linecap="round" stroke-linejoin="round" stroke-width="1.8"/>
      <path id="Path_4" data-name="Path 4" d="M3,3,9.069,9.069" transform="translate(0 0)" fill="none" stroke="#fff" stroke-linecap="round" stroke-linejoin="round" stroke-width="1.8"/>
      <path id="Path_5" data-name="Path 5" d="M16.7,15.1a1.6,1.6,0,1,1-1.6-1.6A1.6,1.6,0,0,1,16.7,15.1Z" transform="translate(-4.9 -4.9)" fill="none" stroke="#fff" stroke-linecap="round" stroke-linejoin="round" stroke-width="1.8"/>
    </g>
    <g id="Group_1" data-name="Group 1" transform="translate(-9 -2)">
      <path id="Path_6" data-name="Path 6" d="M-260.054,28V15.6" transform="translate(277.054 1.401)" fill="none" stroke="#fff" stroke-width="1.8"/>
      <path id="Path_7" data-name="Path 7" d="M-260.054,28V15.6" transform="translate(49 272.854) rotate(90)" fill="none" stroke="#fff" stroke-width="1.8"/>
      <g id="Rectangle_8" data-name="Rectangle 8" transform="translate(13 9)" fill="none" stroke="#fff" stroke-width="1.8">
        <rect width="8" height="8" stroke="none"/>
        <rect x="0.9" y="0.9" width="6.2" height="6.2" fill="none"/>
      </g>
    </g>
  </g>
</svg>
