<svg xmlns="http://www.w3.org/2000/svg" width="262.818" height="307.922" viewBox="0 0 262.818 307.922"><g transform="translate(-58.5 -44.566)"><g transform="translate(58.681 44.566)"><path d="M317.651,80.819l-1.607-2.6C302.773,56.3,278.73,43.09,253.373,44.7a66.429,66.429,0,0,0-9.7,1.329c-23.05,4.936-43.107,22.364-51.429,44.693-4.893,13.129-6.257,28.243-15.536,38.664-12.079,13.571-32.579,13.993-50.6,13.429s-38.571-.079-50.557,13.536c-7.521,8.529-9.914,20.671-9.307,32.1,1.607,30.243,22.679,57.271,49.471,70.714s58.343,14.643,87.671,8.729c41.079-8.279,80.143-31.021,103.629-66.15S336.444,118.733,317.651,80.819Z" transform="translate(-66.154 -44.566)" fill="#ebebeb"/></g><g transform="translate(237.621 247.13)"><path d="M373.32,382.26c-.071.079-.636-.257-1.271-.764s-1.086-.986-1.021-1.071.636.257,1.271.764S373.385,382.16,373.32,382.26Z" transform="translate(-332.199 -343.086)" fill="#263238"/><path d="M390.944,342.059a19.786,19.786,0,0,0-.586-7.143c-.757-2.271-2.521-4.393-4.879-4.879-2.693-.557-5.45,1.143-6.964,3.443s-2.021,5.086-2.471,7.8a275.864,275.864,0,0,0-3.379,56.636l11.021,1.543C388.545,379.673,390.066,362.395,390.944,342.059Z" transform="translate(-332.594 -328.663)" fill="#455a64"/><path d="M385.344,329.94a.5.5,0,0,1-.05.179c-.05.114-.114.293-.186.5-.179.464-.421,1.1-.714,1.9-.15.414-.357.864-.521,1.379l-.536,1.664c-.193.6-.393,1.243-.614,1.921l-.571,2.179a96.429,96.429,0,0,0-2.143,10.907c-.593,4.143-.986,8.729-1.293,13.571-.564,9.657-.65,18.414-.9,24.75-.114,3.171-.221,5.714-.343,7.507-.064.857-.107,1.536-.143,2.036l-.043.529a.714.714,0,0,1,0,.179.515.515,0,0,1,0-.179v-.536q0-.75.064-2.036c.079-1.771.143-4.336.221-7.507.179-6.336.221-15.093.786-24.764.307-4.829.714-9.429,1.329-13.571a90.631,90.631,0,0,1,2.221-10.929l.593-2.179.65-1.914.571-1.664c.171-.514.386-.957.55-1.371.343-.793.607-1.429.807-1.879l.214-.486A.714.714,0,0,1,385.344,329.94Z" transform="translate(-333.987 -328.666)" fill="#263238"/><path d="M388.954,330a7.856,7.856,0,0,1,1.35,2.279,16.893,16.893,0,0,1,1.007,7.143c-.293,6.086-.843,14.471-1.564,23.736s-1.507,17.557-2.221,23.643c-.329,3.021-.607,5.471-.814,7.143-.107.814-.193,1.464-.25,1.943a2.726,2.726,0,0,1-.079.5.487.487,0,0,1-.036.171.522.522,0,0,1,0-.171l.036-.507c.043-.486.1-1.136.179-1.957.164-1.729.4-4.171.714-7.143.579-6.057,1.343-14.436,2.071-23.693s1.314-17.65,1.679-23.721a17.142,17.142,0,0,0-.871-7.057A13.93,13.93,0,0,0,388.954,330Z" transform="translate(-336.576 -328.683)" fill="#263238"/><path d="M399.073,369.29a6.144,6.144,0,0,1-2.086-.543,6.079,6.079,0,0,1-1.957-.907,5.843,5.843,0,0,1,2.086.536A5.929,5.929,0,0,1,399.073,369.29Z" transform="translate(-339.059 -339.494)" fill="#263238"/><path d="M400.9,354.15A13.371,13.371,0,0,1,396.76,356,12.944,12.944,0,0,1,400.9,354.15Z" transform="translate(-339.553 -335.583)" fill="#263238"/><path d="M400.277,341.173a3.643,3.643,0,0,1-1.643.086c-.9-.064-1.621-.2-1.614-.314a3.572,3.572,0,0,1,1.643-.079,3.507,3.507,0,0,1,1.614.307Z" transform="translate(-339.627 -331.77)" fill="#263238"/><path d="M384.943,331.941c-.093.057-.579-.543-1.079-1.343s-.836-1.493-.714-1.55.571.543,1.071,1.343S385.036,331.87,384.943,331.941Z" transform="translate(-335.657 -328.41)" fill="#263238"/><path d="M379.161,340.754a3.315,3.315,0,0,1-1.564.157,3.221,3.221,0,0,1-1.557-.229,3.328,3.328,0,0,1,1.564-.164C378.461,340.539,379.161,340.64,379.161,340.754Z" transform="translate(-333.633 -331.68)" fill="#263238"/><path d="M375.372,355.871a3.793,3.793,0,0,1-1.643-.45c-.871-.35-1.543-.714-1.5-.821a3.814,3.814,0,0,1,1.643.45C374.743,355.4,375.415,355.771,375.372,355.871Z" transform="translate(-332.543 -335.712)" fill="#263238"/><path d="M375.063,369.408a3.114,3.114,0,0,1-1.429.5c-.821.171-1.429.214-1.486.107s.607-.329,1.429-.493S375.042,369.3,375.063,369.408Z" transform="translate(-332.52 -339.927)" fill="#263238"/><path d="M373.233,390.766a3.314,3.314,0,0,1-1.486.464c-.843.15-1.543.186-1.557.079s.643-.314,1.486-.464A3.215,3.215,0,0,1,373.233,390.766Z" transform="translate(-331.961 -346.027)" fill="#263238"/><path d="M372.2,402.562c.05.1-.507.493-1.243.879s-1.371.629-1.429.536.5-.493,1.243-.879S372.15,402.469,372.2,402.562Z" transform="translate(-331.771 -349.409)" fill="#263238"/><path d="M382.18,414.727c-.1.057-.579-.614-1.086-1.493a4.364,4.364,0,0,1-.714-1.686c.093-.057.579.614,1.079,1.493A4.585,4.585,0,0,1,382.18,414.727Z" transform="translate(-334.873 -351.982)" fill="#263238"/><path d="M384.594,393.717c.079.079-.464.714-1.2,1.429a4.976,4.976,0,0,1-1.486,1.171,4.923,4.923,0,0,1,1.207-1.429C383.858,394.174,384.523,393.638,384.594,393.717Z" transform="translate(-335.308 -346.886)" fill="#263238"/><path d="M384.276,381.206c-.079.079-.579-.336-1.121-.914s-.907-1.107-.829-1.186.586.336,1.121.921S384.354,381.17,384.276,381.206Z" transform="translate(-335.426 -342.711)" fill="#263238"/><path d="M386.076,367.147c.079.071-.371.714-1.007,1.429s-1.214,1.229-1.293,1.15.364-.714,1-1.429S385.969,367.076,386.076,367.147Z" transform="translate(-335.841 -339.295)" fill="#263238"/><path d="M386.977,355.332c-.071.079-.714-.414-1.429-1.1s-1.2-1.307-1.121-1.386.714.421,1.429,1.107S387.084,355.254,386.977,355.332Z" transform="translate(-336.027 -335.208)" fill="#263238"/><path d="M389.447,341.709a3.871,3.871,0,0,1-.714,1.564c-.486.807-.95,1.429-1.043,1.357a3.906,3.906,0,0,1,.714-1.564C388.89,342.259,389.34,341.651,389.447,341.709Z" transform="translate(-336.961 -332.027)" fill="#263238"/><path d="M393.493,328.159a3.836,3.836,0,0,1-.621,1.564c-.443.814-.879,1.429-.971,1.379a3.8,3.8,0,0,1,.621-1.564C392.964,328.759,393.4,328.109,393.493,328.159Z" transform="translate(-338.164 -328.156)" fill="#263238"/><path d="M397.774,334.3c.05.1-.393.407-.979.714s-1.107.429-1.157.329.393-.4.986-.714S397.731,334.2,397.774,334.3Z" transform="translate(-339.231 -329.902)" fill="#263238"/><path d="M397.137,382.311a4.514,4.514,0,0,1-2.143-.521,4.4,4.4,0,0,1-1.864-1.2,11.5,11.5,0,0,1,2.021.836A10.271,10.271,0,0,1,397.137,382.311Z" transform="translate(-338.516 -343.137)" fill="#263238"/><path d="M395.686,393.261a3.328,3.328,0,0,1-1.486.493c-.843.164-1.536.207-1.55.1s.643-.329,1.479-.493a3.393,3.393,0,0,1,1.557-.1Z" transform="translate(-338.378 -346.744)" fill="#263238"/><path d="M393.546,409.623a4.285,4.285,0,0,1-1.679-1.471,4.329,4.329,0,0,1-1.057-1.971,12.493,12.493,0,0,1,1.364,1.721,13.208,13.208,0,0,1,1.371,1.721Z" transform="translate(-337.853 -350.449)" fill="#263238"/><path d="M369.837,418.224c-.071-.079.379-.579,1-1.114s1.186-.893,1.257-.814-.379.579-1,1.114S369.908,418.339,369.837,418.224Z" transform="translate(-331.858 -353.336)" fill="#263238"/><path d="M359.271,378.516c-.714-2.243-2.064-4.85-4.414-4.886a3.893,3.893,0,0,0-3.307,2.214,8.107,8.107,0,0,0-.893,4.05,105.814,105.814,0,0,0,5.05,29.35h8.571a102.086,102.086,0,0,0-5.007-30.729Z" transform="translate(-326.379 -341.149)" fill="#455a64"/><path d="M335.034,357.673a9.569,9.569,0,0,0-8.957-7.643c-3.8.664-5.279,4.407-5.714,8.243s.714,7.65,1.914,11.329q5.657,17.7,11.307,35.407l10.714-1.171C340.9,388.03,338.955,373.366,335.034,357.673Z" transform="translate(-317.698 -334.406)" fill="#455a64"/><path d="M355.971,373.63a8.192,8.192,0,0,0-.714,1.221,7.907,7.907,0,0,0-.407,3.8c.171,1.636.357,3.571.629,5.764s.671,4.529,1.157,6.993c.971,4.943,2.064,9.379,2.764,12.614.35,1.614.614,2.921.786,3.836.071.414.129.764.179,1.05a1.307,1.307,0,0,1,.036.371,1.5,1.5,0,0,1-.114-.357c-.071-.279-.15-.621-.25-1.036l-.907-3.807c-.764-3.214-1.907-7.636-2.857-12.593-.479-2.479-.864-4.857-1.121-7.029-.136-1.086-.229-2.143-.314-3.093s-.186-1.864-.236-2.693a7.857,7.857,0,0,1,.543-3.886,3.415,3.415,0,0,1,.829-1.157Z" transform="translate(-327.493 -341.149)" fill="#263238"/><path d="M327.326,349.6a14.359,14.359,0,0,0-1.293,1.736,12.186,12.186,0,0,0-1.636,5.6,25.949,25.949,0,0,0,1.329,8.614c.936,3.186,1.971,6.686,3.05,10.35l5.479,18.829c.679,2.386,1.221,4.329,1.621,5.714.171.643.314,1.164.414,1.557a2.9,2.9,0,0,1,.121.55,2.81,2.81,0,0,1-.193-.529c-.129-.386-.286-.9-.493-1.536-.421-1.386-1.014-3.314-1.736-5.714L328.4,375.979c-1.071-3.671-2.093-7.143-3.021-10.364a26.007,26.007,0,0,1-1.25-8.729,12.043,12.043,0,0,1,1.771-5.664,6.692,6.692,0,0,1,1.429-1.621Z" transform="translate(-318.79 -334.283)" fill="#263238"/><path d="M344.064,402.664a2.475,2.475,0,0,1-.243-.514c-.143-.343-.371-.843-.614-1.507-.507-1.314-1.164-3.25-1.836-5.679s-1.35-5.364-1.993-8.629-1.307-6.871-2.021-10.65a103.955,103.955,0,0,0-2.529-10.514,59.014,59.014,0,0,0-3.121-8.243,44.222,44.222,0,0,0-2.857-5.2c-.371-.6-.714-1.029-.9-1.343a2.433,2.433,0,0,1-.3-.486,3.629,3.629,0,0,1,.364.436c.214.3.571.714.964,1.307a40.071,40.071,0,0,1,3.007,5.164,56.424,56.424,0,0,1,3.214,8.264,104.209,104.209,0,0,1,2.571,10.543c.714,3.771,1.379,7.371,1.986,10.65s1.264,6.193,1.907,8.629,1.257,4.371,1.721,5.714c.214.671.421,1.179.536,1.529A4.28,4.28,0,0,1,344.064,402.664Z" transform="translate(-319.807 -334.369)" fill="#263238"/><path d="M322.253,374.973c0,.107-.557.336-1.3.521s-1.371.236-1.393.136.557-.343,1.3-.521S322.224,374.83,322.253,374.973Z" transform="translate(-317.495 -341.513)" fill="#263238"/><path d="M320.291,364.648a13.571,13.571,0,0,1-3.621.143A6.179,6.179,0,0,1,320.291,364.648Z" transform="translate(-316.67 -338.524)" fill="#263238"/><path d="M322.49,354.592c-.071.079-.65-.293-1.3-.843s-1.114-1.064-1.043-1.143.65.293,1.3.843S322.561,354.506,322.49,354.592Z" transform="translate(-317.661 -335.139)" fill="#263238"/><path d="M327.865,346.74c.107,0,.079.543.057,1.179s0,1.15-.129,1.164-.286-.507-.264-1.179S327.758,346.718,327.865,346.74Z" transform="translate(-319.772 -333.466)" fill="#263238"/><path d="M336.735,350.817c.086.057-.171.586-.586,1.171s-.814,1.014-.907.957.171-.593.586-1.179S336.643,350.753,336.735,350.817Z" transform="translate(-321.971 -334.629)" fill="#263238"/><path d="M342.348,361.328c.036.107-.514.429-1.243.714s-1.343.45-1.386.35.514-.421,1.243-.714S342.3,361.228,342.348,361.328Z" transform="translate(-323.255 -337.625)" fill="#263238"/><path d="M345.641,372.18a4.957,4.957,0,0,1-3.571.8,7.407,7.407,0,0,1,1.764-.443,6.586,6.586,0,0,1,1.807-.357Z" transform="translate(-323.927 -340.734)" fill="#263238"/><path d="M330.174,368.191c-.1,0,0-.564.171-1.193s.436-1.107.543-1.079,0,.571-.171,1.193S330.281,368.227,330.174,368.191Z" transform="translate(-320.517 -338.945)" fill="#263238"/><path d="M332.55,381.484a3.636,3.636,0,0,1,.486-1.607c.364-.843.714-1.493.843-1.429a3.636,3.636,0,0,1-.486,1.607C333.029,380.877,332.65,381.527,332.55,381.484Z" transform="translate(-321.207 -342.524)" fill="#263238"/><path d="M325.54,386.027c-.043.107-.714-.079-1.543-.336s-1.479-.493-1.429-.6.714-.036,1.579.221S325.583,385.934,325.54,386.027Z" transform="translate(-318.355 -344.409)" fill="#263238"/><path d="M329.169,397.5c.064.093-.393.529-1.021.971a3.181,3.181,0,0,1-1.25.657c-.064-.057.393-.529,1.021-.971S329.112,397.418,329.169,397.5Z" transform="translate(-319.59 -347.966)" fill="#263238"/><path d="M331.721,408.548c0,.107-.536.336-1.264.507s-1.336.236-1.357.129.543-.329,1.264-.507S331.7,408.441,331.721,408.548Z" transform="translate(-320.221 -351.11)" fill="#263238"/><path d="M346.378,381.4c.057.093-.429.479-1.136.714s-1.321.3-1.343.193.536-.307,1.207-.557S346.321,381.308,346.378,381.4Z" transform="translate(-324.45 -343.362)" fill="#263238"/><path d="M348.493,398.145c-.05.1-.629-.071-1.293-.386s-1.171-.65-1.121-.75.621.079,1.286.393S348.536,398.052,348.493,398.145Z" transform="translate(-325.071 -347.82)" fill="#263238"/><path d="M351.834,410.409a4.028,4.028,0,0,1-1.707-.457c-.9-.35-1.6-.714-1.557-.821a4.165,4.165,0,0,1,1.7.457A4.071,4.071,0,0,1,351.834,410.409Z" transform="translate(-325.784 -351.292)" fill="#263238"/><path d="M333.359,419.623c-.05-.093.65-.564,1.464-1.207s1.429-1.207,1.521-1.129-.436.779-1.279,1.429a3.451,3.451,0,0,1-1.707.907Z" transform="translate(-321.438 -353.62)" fill="#263238"/><path d="M342.7,413.285c-.114,0-.264-.579-.536-1.264s-.543-1.229-.457-1.293.543.407.829,1.15S342.8,413.271,342.7,413.285Z" transform="translate(-323.818 -351.746)" fill="#263238"/><path d="M339.805,398.985c-.064.093-.514-.121-1.007-.479s-.836-.714-.771-.793.514.121,1,.479S339.87,398.9,339.805,398.985Z" transform="translate(-322.77 -348.025)" fill="#263238"/><path d="M362.323,376.3c.064.086-.371.514-.979.964s-1.143.714-1.207.643.371-.514.979-.964S362.259,376.21,362.323,376.3Z" transform="translate(-329.087 -341.907)" fill="#263238"/><path d="M365.439,385.5c0,.107-.671.25-1.521.157s-1.486-.379-1.429-.479a4.513,4.513,0,0,1,1.493.086C364.76,385.355,365.431,385.4,365.439,385.5Z" transform="translate(-329.76 -344.438)" fill="#263238"/><path d="M350.763,387.725a2.473,2.473,0,0,1-1.429.386c-.821.057-1.479-.086-1.464-.193s.65-.15,1.429-.2S350.741,387.617,350.763,387.725Z" transform="translate(-325.584 -345.158)" fill="#263238"/><path d="M352.232,378.469c0,.107-.65.121-1.35-.2s-1.107-.821-1.036-.893.557.243,1.2.536S352.247,378.362,352.232,378.469Z" transform="translate(-326.147 -342.216)" fill="#263238"/><path d="M366.79,394.989a3.571,3.571,0,0,1-1.464-.714c-.75-.471-1.314-.929-1.257-1.021s.714.214,1.464.714S366.876,394.9,366.79,394.989Z" transform="translate(-330.211 -346.751)" fill="#263238"/><rect width="56.007" height="9.929" transform="translate(6.186 66.974)" fill="#9553ff"/><path d="M331.19,433.06,338,462.717h33.379l7.457-29.657Z" transform="translate(-320.819 -358.129)" fill="#9553ff"/><path d="M381.129,435.75c0,.107-12.636.2-28.214.2s-28.214-.093-28.214-.2,12.629-.2,28.214-.2S381.129,435.643,381.129,435.75Z" transform="translate(-318.964 -358.84)" fill="#263238"/><path d="M359.533,387.168c-.093.057-.471-.386-.85-.993s-.614-1.15-.521-1.207.471.386.85.993S359.626,387.132,359.533,387.168Z" transform="translate(-328.519 -344.387)" fill="#263238"/><path d="M360.118,398.075a3.171,3.171,0,0,1,.293-1.507c.264-.8.564-1.429.671-1.379a3.179,3.179,0,0,1-.293,1.507C360.525,397.489,360.225,398.11,360.118,398.075Z" transform="translate(-329.083 -347.308)" fill="#263238"/><path d="M363.394,409.733c-.1.05-.514-.621-.936-1.5a4.072,4.072,0,0,1-.579-1.664c.1-.043.514.621.936,1.5A4.071,4.071,0,0,1,363.394,409.733Z" transform="translate(-329.587 -350.559)" fill="#263238"/><path d="M355.665,419.584c-.086-.071.25-.586.714-1.157s.964-.971,1.043-.9-.25.586-.714,1.157S355.743,419.655,355.665,419.584Z" transform="translate(-327.807 -353.688)" fill="#263238"/><path d="M353,403.079c0,.107-.557.1-1.2,0s-1.157-.293-1.136-.4.557-.1,1.2,0S353.045,402.972,353,403.079Z" transform="translate(-326.381 -349.426)" fill="#263238"/></g><g transform="translate(138.991 47.629)"><path d="M211.6,148.051l11.093-4.107,27.471-2.014,7.229,2.207-9.75,42-23.964,5.179-11.114-14.75Z" transform="translate(-188.02 -75.447)" fill="#ffbe9d"/><path d="M268.206,150.357,250.3,144s-16.793,24.021-44.336,4.607c0,0-12.079,4.343-13.879,5.343s8.4,31.521,8.4,31.521l-1.2,37.95c15.714,8.107,40.857,5.093,62.743,1.429l-.629-42.143Z" transform="translate(-182.383 -76.039)" fill="#9553ff"/><path d="M282.052,100.521a6.65,6.65,0,0,0-9.857-8.786l-3.571,6.336a17.257,17.257,0,0,0-3.807,8.379,12.386,12.386,0,0,0,2.079,8.879,10.714,10.714,0,1,0,15.157-14.807Z" transform="translate(-203.186 -60.631)" fill="#263238"/><path d="M272.5,100.777a19.013,19.013,0,0,1,.271-6.364,8.756,8.756,0,0,0,.586-2.336,2.857,2.857,0,0,0-5.043-1.814l-.1.236a8.3,8.3,0,0,0-2.314,4.093,63.911,63.911,0,0,0-1.829,7.193,11.429,11.429,0,0,0-.236,4.143,4.414,4.414,0,0,0,2.279,3.293c1.943.9,4.343-.343,5.407-2.193A11.148,11.148,0,0,0,272.5,100.777Z" transform="translate(-202.918 -60.395)" fill="#9553ff"/><path d="M251.357,81.894c-.407-2.429-1.464-4.714-1.836-7.143-.486-3.193.236-6.429.414-9.657s-.329-6.779-2.693-8.979c-2.521-2.35-6.314-2.457-9.707-3.071-3.857-.714-7.514-2.221-11.307-3.229s-7.9-1.486-11.571-.107c-3.321,1.243-5.921,3.85-8.271,6.5C202.571,60.5,199,65.587,199,71.33c0,2.979,1.05,5.864,1.429,8.821.364,2.857.136,5.714.8,8.571s2.55,5.571,5.364,6.086l30.871,3.086a13.707,13.707,0,0,0,13.893-16Z" transform="translate(-184.42 -48.854)" fill="#263238"/><path d="M245.562,71.033l-.079-3.779-22.857-3.393c-7.014-.457-14.286,6.857-14.443,13.886-.171,7.807-.079,17.35,1.079,23.129,2.329,11.614,11.35,12.736,11.35,12.736v6.6a13.271,13.271,0,0,0,13.264,13.257h0a13.264,13.264,0,0,0,13.257-13.693Z" transform="translate(-187.025 -53.136)" fill="#ffbe9d"/><path d="M215,93.638a1.507,1.507,0,0,0,1.507,1.429A1.429,1.429,0,0,0,218,93.638a1.507,1.507,0,0,0-1.507-1.429A1.429,1.429,0,0,0,215,93.638Z" transform="translate(-188.991 -61.241)" fill="#263238"/><path d="M211.987,89.441c.193.186,1.3-.714,2.907-.757s2.857.714,3,.493c.079-.093-.121-.436-.657-.793a4.15,4.15,0,0,0-2.407-.636,3.914,3.914,0,0,0-2.3.85C212.03,89,211.88,89.355,211.987,89.441Z" transform="translate(-188.121 -59.965)" fill="#263238"/><path d="M236.37,92.918a1.507,1.507,0,0,0,1.507,1.429,1.429,1.429,0,0,0,1.493-1.429,1.507,1.507,0,0,0-1.507-1.429,1.429,1.429,0,0,0-1.493,1.429Z" transform="translate(-195.097 -61.035)" fill="#263238"/><path d="M234.19,88.961c.193.186,1.293-.714,2.907-.757s2.857.714,2.993.493c.086-.093-.114-.436-.65-.793a4.15,4.15,0,0,0-2.407-.636,3.921,3.921,0,0,0-2.271.85C234.247,88.5,234.1,88.875,234.19,88.961Z" transform="translate(-194.467 -59.828)" fill="#263238"/><path d="M225.028,101.331a10.714,10.714,0,0,0-2.636-.364c-.414,0-.807-.093-.893-.371a2.143,2.143,0,0,1,.229-1.229c.35-1.014.714-2.079,1.093-3.186,1.507-4.536,2.586-8.221,2.436-8.321s-1.557,3.571-3.064,8.107c-.364,1.114-.714,2.179-1.043,3.2a2.4,2.4,0,0,0-.179,1.65,1.029,1.029,0,0,0,.714.571,2.856,2.856,0,0,0,.714.071A10.336,10.336,0,0,0,225.028,101.331Z" transform="translate(-190.677 -59.998)" fill="#263238"/><path d="M225.65,131.62a30.943,30.943,0,0,0,15.879-4.85s-3.736,8.379-15.879,7.793Z" transform="translate(-192.034 -71.116)" fill="#eb996e"/><path d="M227.8,111.652a2.857,2.857,0,0,1,2.557-1.186,2.629,2.629,0,0,1,1.879.907,1.686,1.686,0,0,1,.2,1.914,1.957,1.957,0,0,1-2.093.621,6.071,6.071,0,0,1-2.107-1.143,1.879,1.879,0,0,1-.486-.464.557.557,0,0,1,0-.6" transform="translate(-192.61 -66.455)" fill="#eb996e"/><path d="M241.746,82.147c-.093-.457-1.721-.486-3.571-.986s-3.286-1.236-3.571-.879c-.136.164.064.614.614,1.121a6.429,6.429,0,0,0,5.45,1.429C241.389,82.654,241.782,82.361,241.746,82.147Z" transform="translate(-194.581 -57.807)" fill="#263238"/><path d="M215.905,81.294c-.507-.15-1.664.871-3.25,1.714s-3.071,1.3-3.207,1.8c-.05.236.329.45,1.079.457a6.429,6.429,0,0,0,2.936-.836,6.229,6.229,0,0,0,2.271-1.993C216.127,81.794,216.141,81.38,215.905,81.294Z" transform="translate(-187.404 -58.118)" fill="#263238"/><path d="M241.676,58.3l-17.629,1.386L209.44,64.721c1.879,4.093,2.236,7.457,6.721,7.857a13.207,13.207,0,0,0,11.757-5.293c.757,3.314,4.493,5,7.857,5.471a13.386,13.386,0,0,0,7.1-.643,7.062,7.062,0,0,0,4.379-5.314C247.554,64.414,244.047,58.693,241.676,58.3Z" transform="translate(-187.403 -51.553)" fill="#263238"/><path d="M266.246,71.749a8.571,8.571,0,0,0-4.529-3.957l-.45-3.421L248.2,68.491A11.883,11.883,0,0,0,251.3,83.97l.057,2.479a15.315,15.315,0,0,0,2.086,7.386h0l4.143,9.021c3.043.071,3.736-3.221,4.943-5.914s1.221-5.714,1.114-8.671q-.079-2.143-.221-4.286c.929-1.571,2.25-3.036,3.029-4.707a8.571,8.571,0,0,0-.2-7.529Z" transform="translate(-198.009 -53.287)" fill="#263238"/><path d="M255.71,96.105c.179-.093,7.143-2.857,7.564,4.471s-6.993,6.243-7.014,6.036S255.71,96.105,255.71,96.105Z" transform="translate(-200.623 -62.187)" fill="#ffbe9d"/><path d="M259.368,104.653a2.26,2.26,0,0,0,.357.171,1.264,1.264,0,0,0,.95-.043,3.134,3.134,0,0,0,1.286-2.914,4.171,4.171,0,0,0-.464-1.8,1.471,1.471,0,0,0-1.014-.921.65.65,0,0,0-.714.393c-.086.214-.036.357-.071.371s-.164-.114-.121-.421a.8.8,0,0,1,.257-.471.95.95,0,0,1,.714-.229,1.793,1.793,0,0,1,1.429,1.05,4.363,4.363,0,0,1,.564,2.014c.043,1.479-.629,2.9-1.671,3.264A1.336,1.336,0,0,1,259.7,105C259.39,104.817,259.347,104.653,259.368,104.653Z" transform="translate(-201.666 -63.12)" fill="#eb996e"/><path d="M265.393,73.479c.114,0,.186.364.071.957a5.164,5.164,0,0,1-1.179,2.271,6.071,6.071,0,0,1-3.343,1.957c-1.514.321-3.029,0-4.286.136a10.521,10.521,0,0,0-1.957.479c-.343.1-.714.2-1.071.279s-.714.136-1.057.179a8.064,8.064,0,0,1-3.75-.307A4.921,4.921,0,0,1,246.679,78c-.386-.464-.486-.793-.4-.871.214-.214,1.114.714,2.857,1.021a8.493,8.493,0,0,0,3.136-.121c.3-.057.607-.129.914-.207s.607-.186.936-.3a10.849,10.849,0,0,1,2.307-.586c1.743-.15,3.114.207,4.2,0a5.529,5.529,0,0,0,2.714-1.214C264.75,74.615,265.114,73.407,265.393,73.479Z" transform="translate(-197.92 -55.889)" fill="#fff"/><path d="M233.273,110.859c.043.207-1.386.643-2.971,1.486s-2.757,1.771-2.907,1.614.85-1.371,2.557-2.271S233.244,110.666,233.273,110.859Z" transform="translate(-192.528 -66.547)" fill="#263238"/><path d="M237.214,111.548c-.1-.05.079-.557-.071-1.164s-.5-1-.436-1.079.636.243.8.993S237.293,111.613,237.214,111.548Z" transform="translate(-195.191 -66.123)" fill="#eb996e"/><path d="M241.113,95.918c.086.043-.264.714-1.093,1.114s-1.579.229-1.55.129.679-.114,1.393-.464S241.027,95.853,241.113,95.918Z" transform="translate(-195.697 -62.299)" fill="#eb996e"/><path d="M242.363,96.707c.086.057-.186.536-.764.85s-1.121.286-1.129.186.45-.236.95-.514S242.277,96.642,242.363,96.707Z" transform="translate(-196.268 -62.524)" fill="#eb996e"/><path d="M214.571,98.6c0,.1-.4.164-.814-.05s-.593-.571-.514-.636.343.129.714.3S214.578,98.494,214.571,98.6Z" transform="translate(-188.484 -62.868)" fill="#eb996e"/><path d="M214.334,99.783c0,.1-.457.107-.943-.114s-.779-.564-.714-.636.429.1.864.3S214.369,99.719,214.334,99.783Z" transform="translate(-188.325 -63.186)" fill="#eb996e"/><path d="M227.187,80.09a5.429,5.429,0,0,1-5.907.586,8.892,8.892,0,0,0,5.907-.586Z" transform="translate(-190.786 -57.779)" fill="#eb996e"/><path d="M229.143,81.136a2.3,2.3,0,0,1-1.529,1.157,2.257,2.257,0,0,1-1.914-.064,16.7,16.7,0,0,0,1.8-.293C228.457,81.643,229.064,81.036,229.143,81.136Z" transform="translate(-192.048 -58.074)" fill="#eb996e"/><path d="M212.143,68.8a1.567,1.567,0,0,1-.179-.207,3.843,3.843,0,0,1-.407-.671,6.179,6.179,0,0,1-.579-2.807,11.654,11.654,0,0,1,4.286-8.229,12.893,12.893,0,0,1,4.543-2.55,13.036,13.036,0,0,1,4.207-.6,12.143,12.143,0,0,1,2.857.379,5.347,5.347,0,0,1,.714.229c.143.064.25.1.243.114A18.8,18.8,0,0,0,224,54a13.45,13.45,0,0,0-4.107.671,12.943,12.943,0,0,0-4.4,2.5,11.679,11.679,0,0,0-4.236,7.957,6.429,6.429,0,0,0,.45,2.743C211.95,68.482,212.172,68.782,212.143,68.8Z" transform="translate(-187.842 -50.249)" fill="#455a64"/><path d="M246.46,73.444a1.993,1.993,0,0,1-.621-.143,9.193,9.193,0,0,1-1.586-.714,12.386,12.386,0,0,1-4.207-3.871,7.857,7.857,0,0,1-1.029-3.014,14.71,14.71,0,0,1-.15-2.579,12.012,12.012,0,0,1,.171-1.729,1.978,1.978,0,0,1,.157-.614c.064,0-.086.9-.064,2.35a16.2,16.2,0,0,0,.221,2.514A7.985,7.985,0,0,0,240.36,68.5a13.407,13.407,0,0,0,4.029,3.864C245.617,73.123,246.482,73.387,246.46,73.444Z" transform="translate(-195.809 -52.261)" fill="#455a64"/><path d="M220.251,69.8a2.514,2.514,0,0,1-.229-.714,8.735,8.735,0,0,1-.193-2,9.543,9.543,0,0,1,8.014-9.379,8.428,8.428,0,0,1,2.007-.114,2.579,2.579,0,0,1,.714.107,20.078,20.078,0,0,0-2.693.264,9.679,9.679,0,0,0-7.8,9.129,18.011,18.011,0,0,0,.179,2.707Z" transform="translate(-190.371 -51.346)" fill="#455a64"/><path d="M250.033,55.176a14.1,14.1,0,0,0-4.6.107,13.957,13.957,0,0,0-4.193,1.907,3.429,3.429,0,0,1,1.029-.929A9.05,9.05,0,0,1,248.7,54.79a3.629,3.629,0,0,1,1.336.386Z" transform="translate(-196.488 -50.522)" fill="#455a64"/><path d="M285.772,103.395c-.371.386-2.243-.871-4.8-1.614s-4.8-.793-4.893-1.321c-.036-.243.521-.579,1.521-.757a9,9,0,0,1,7.329,2.221C285.658,102.624,285.936,103.216,285.772,103.395Z" transform="translate(-206.442 -63.355)" fill="#fff"/><path d="M284.771,102.2s.321-.164.879-.486a7.593,7.593,0,0,0,2.036-1.743,6.871,6.871,0,0,0,1.543-3.571,6.714,6.714,0,0,0-1.214-4.571A6.593,6.593,0,0,0,284,89.262a9.471,9.471,0,0,0-3.964,0A25.856,25.856,0,0,0,276.5,90.39a4.157,4.157,0,0,1,.886-.486,12.67,12.67,0,0,1,2.6-.9,9.35,9.35,0,0,1,4.086-.071,6.784,6.784,0,0,1,3.786,11.221,7.2,7.2,0,0,1-2.143,1.7,5.2,5.2,0,0,1-.714.293A1.057,1.057,0,0,1,284.771,102.2Z" transform="translate(-206.563 -60.25)" fill="#263238"/><path d="M199.377,257.6s-15.207,32.043-15.057,46.793c.1,9.286,13.1,108.114,13.1,108.114h27.7l2.25-92.071,1.9-2.543,1.186,2.9s-4.179,89.436-3.2,91.714H258.22s9.843-70.914,11.15-81.657,2.857-15.886,2.186-31.514S259.927,257.6,259.927,257.6,217.934,264.436,199.377,257.6Z" transform="translate(-180.225 -108.496)" fill="#263238"/><path d="M206.331,257.9l-2.571,8.843,7.414,1.593,2.086-8.9Z" transform="translate(-185.78 -108.581)" fill="#455a64"/><path d="M220.4,260.307l-1.5,8.529a143.123,143.123,0,0,0,17.471.714c8.693-.236,17.186-.964,20.993-2.293l-1.107-7.607S227.543,262.286,220.4,260.307Z" transform="translate(-190.106 -109.081)" fill="#455a64"/><path d="M276.39,258.524l1.836,7.5s5.929-.65,8.371-2.079l-2.043-6.736Z" transform="translate(-206.531 -108.384)" fill="#455a64"/><path d="M219.548,416.8c-.071-2.043-1.086-31.471-2.407-69.9-.614-19.286-1.05-36.8-1.179-49.457,0-3.164,0-6.029-.036-8.571s.043-4.671.057-6.429.093-3.129.121-4.071a8.746,8.746,0,0,1,.036-1.064.856.856,0,0,0,0-.357v1.421c0,.95,0,2.314-.05,4.071s0,3.943,0,6.429.05,5.379.086,8.571c.193,12.65.671,30.136,1.286,49.443s1.179,36.764,1.586,49.429c.193,6.329.321,11.429.393,15,0,1.757.043,3.121.057,4.071v1.064A.824.824,0,0,0,219.548,416.8Z" transform="translate(-189.253 -114.024)" fill="#455a64"/><path d="M246.157,274.31a1.929,1.929,0,0,1,.036.421q0,.471,0,1.2c0,1.086,0,2.579.05,4.4.036,3.721.114,8.857.271,14.529s.386,10.807.557,14.521c.086,1.821.15,3.314.2,4.4q0,.714.043,1.2a1.529,1.529,0,0,1,0,.421,3.343,3.343,0,0,1-.064-.414l-.107-1.2c-.093-1.036-.2-2.536-.321-4.393-.236-3.714-.5-8.85-.664-14.521S246,284.089,246,280.331c0-1.857.036-3.364.064-4.407l.043-1.193A1.622,1.622,0,0,1,246.157,274.31Z" transform="translate(-197.848 -113.27)" fill="#455a64"/><path d="M244.316,315.786a4.587,4.587,0,0,1-.464-.079l-1.321-.257a43.975,43.975,0,0,1-4.829-1.221,6.587,6.587,0,0,1-1.529-.714.935.935,0,0,1-.329-.386c-.05-.15-.093-.293-.136-.436a7.642,7.642,0,0,1-.164-.914c-.143-1.25-.064-2.564-.079-3.95,0-2.779.036-5.821.057-9.014.064-6.379.129-12.143.171-16.379.043-2.064.079-3.75.1-4.964q0-.836.043-1.35a2.064,2.064,0,0,1,.043-.471,2.457,2.457,0,0,1,0,.471v6.314c0,4.229-.043,10-.064,16.379,0,3.2-.057,6.243-.086,9.014,0,1.386-.079,2.707.043,3.914a7.049,7.049,0,0,0,.15.879c.036.136.071.279.114.407a.75.75,0,0,0,.229.257,6.235,6.235,0,0,0,1.429.679c1.964.679,3.629,1.036,4.764,1.329l1.307.329A1.587,1.587,0,0,1,244.316,315.786Z" transform="translate(-194.836 -113.653)" fill="#455a64"/><path d="M269.49,415.689v-.364c0-.243.036-.621.064-1.086.057-.964.15-2.364.257-4.157.264-3.621.636-8.836,1.1-15.279.943-12.893,2.257-30.714,3.307-50.414s1.429-37.579,1.007-50.5c-.064-1.614-.136-3.15-.2-4.6s-.107-2.857-.236-4.107c-.229-2.557-.35-4.764-.579-6.557s-.436-3.164-.571-4.121c-.057-.464-.107-.821-.136-1.079s-.036-.364-.036-.364a1.463,1.463,0,0,0,.071.364c.071.243.1.607.179,1.064.143.957.364,2.343.636,4.114s.393,4.007.643,6.564c.143,1.279.2,2.65.271,4.107s.143,2.993.221,4.607c.514,12.936.093,30.814-.9,50.529s-2.407,37.521-3.421,50.414c-.507,6.429-.921,11.65-1.207,15.271-.143,1.786-.257,3.186-.336,4.15-.043.464-.071.821-.093,1.079S269.49,415.689,269.49,415.689Z" transform="translate(-204.56 -112.913)" fill="#455a64"/><path d="M243.853,269.956v1.657l9.6-.371a1.171,1.171,0,0,0,1.129-1.179V261.2a1.179,1.179,0,0,0-1.179-1.179H243.21v1.329l9.664.5v3.221h-.65a.507.507,0,0,0-.521.507h0a.507.507,0,0,0,.493.5h.714v3.214Z" transform="translate(-197.051 -109.187)" fill="#e0e0e0"/><rect width="2.714" height="9.286" transform="translate(38.53 151.433)" fill="#263238"/><path d="M255.3,268.336c-.036.036-.186,0-.343-.25a1.557,1.557,0,0,1-.271-.971,1.428,1.428,0,0,1,.4-.921c.179-.193.336-.243.364-.207a3.269,3.269,0,0,0-.393,1.157C255.018,267.8,255.382,268.271,255.3,268.336Z" transform="translate(-200.33 -110.889)" fill="#263238"/><path d="M244.438,266.616a.194.194,0,0,1,.157-.05.493.493,0,0,1,.35.25.714.714,0,0,1,.043.657.757.757,0,0,1-.714.407.714.714,0,0,1-.607-.564.65.65,0,0,1,.229-.614c.307-.236.557-.121.536-.086a1.144,1.144,0,0,0-.35.271.371.371,0,0,0-.079.357.357.357,0,0,0,.293.264.464.464,0,0,0,.386-.2.478.478,0,0,0,0-.371C244.616,266.695,244.445,266.666,244.438,266.616Z" transform="translate(-197.179 -111.055)" fill="#263238"/><path d="M281.909,266.143a6.492,6.492,0,0,1,.714-1.364c.264-.45.543-.928.843-1.429l.507-.843a6.5,6.5,0,0,0,.5-.864.957.957,0,0,0-.143-.836,3.427,3.427,0,0,0-.714-.571l-1.35-.964a6.566,6.566,0,0,1-1.186-.971,6.073,6.073,0,0,1,1.336.75l1.393.907.4.264a1.521,1.521,0,0,1,.414.371,1.335,1.335,0,0,1,.2,1.164,2.142,2.142,0,0,1-.271.514l-.279.436-.529.829-.907,1.379A6.217,6.217,0,0,1,281.909,266.143Z" transform="translate(-207.871 -108.696)" fill="#263238"/><path d="M297.231,292.556a.908.908,0,0,1-.25.136,3.871,3.871,0,0,1-.793.236,5.979,5.979,0,0,1-2.993-.371,18.574,18.574,0,0,1-3.929-2.143,28.836,28.836,0,0,1-11.15-14.286,6.5,6.5,0,0,1-.307-1.057,5.379,5.379,0,0,1,.443,1.007c.271.657.714,1.586,1.257,2.714a31.858,31.858,0,0,0,5.8,7.9,31.2,31.2,0,0,0,4.15,3.457,19.531,19.531,0,0,0,3.829,2.143,6.157,6.157,0,0,0,2.857.479C296.867,292.691,297.231,292.52,297.231,292.556Z" transform="translate(-206.937 -113.487)" fill="#455a64"/><path d="M203.22,279.29a9.694,9.694,0,0,1-1.179,1.857,34.08,34.08,0,0,1-7.471,7.464,10.075,10.075,0,0,1-1.85,1.179,16.972,16.972,0,0,1,1.693-1.386,46.358,46.358,0,0,0,7.421-7.421,18.11,18.11,0,0,1,1.386-1.693Z" transform="translate(-182.626 -114.693)" fill="#455a64"/><path d="M238.247,168.316l-.5-23.85c-.243-3.064-2.893-2.493-2.893-2.493s-.171,8.457-.879,13.207-3.264,10-3.35,11.064-.414,10.107-.714,13.007a43.125,43.125,0,0,1-1.821,7.2l6.793,5.221,2.064-2.9a8.13,8.13,0,0,0,2.857-3.729C240.34,182.973,238.247,168.316,238.247,168.316Z" transform="translate(-192.731 -75.447)" fill="#ffbe9d"/><path d="M238.136,168.266s.036.129.079.386l.171,1.121c.15.986.357,2.436.6,4.286s.529,4.136.75,6.771c.064.664.107,1.343.143,2.05,0,.357.036.714,0,1.079a4.729,4.729,0,0,1-.114,1.129,5.964,5.964,0,0,1-1.129,2.05,10.413,10.413,0,0,1-1.757,1.693v-.036l-2.057,2.907-.1.129-.129-.1-6.8-5.207-.093-.071v-.121a33.5,33.5,0,0,0,1.986-9.286c.221-3.321.357-6.757.529-10.279a4.364,4.364,0,0,1,.093-.893c.079-.293.171-.564.264-.843l.593-1.607c.4-1.064.786-2.143,1.136-3.179a30.228,30.228,0,0,0,1.429-6.329c.471-4.221.621-8.264.714-11.979V141.8h.129a2.857,2.857,0,0,1,1.636.186,2.257,2.257,0,0,1,1.129,1.143,3.772,3.772,0,0,1,.321,1.514v1.464c0,1.921.071,3.75.1,5.471.057,3.436.107,6.429.15,8.921s.057,4.407.071,5.757v1.529c0-.364,0-.871-.057-1.521-.043-1.35-.093-3.293-.164-5.75s-.143-5.486-.229-8.921c0-1.721-.079-3.571-.129-5.471a7.472,7.472,0,0,0-.336-2.857,1.886,1.886,0,0,0-.979-.986,2.514,2.514,0,0,0-1.429-.157l.129-.157c-.093,3.729-.229,7.764-.714,12.014a30.844,30.844,0,0,1-1.464,6.429c-.35,1.064-.714,2.143-1.136,3.186l-.593,1.607c-.093.264-.186.536-.25.8a3.715,3.715,0,0,0-.086.821c-.171,3.521-.307,6.964-.536,10.286a33.643,33.643,0,0,1-2.021,9.407l-.057-.193,6.779,5.229-.221.036,2.071-2.893h0a7.686,7.686,0,0,0,2.807-3.571,4.764,4.764,0,0,0,.107-1.064v-1.064c0-.714-.071-1.379-.121-2.036-.207-2.629-.471-4.907-.679-6.771s-.4-3.3-.521-4.286c-.057-.486-.1-.857-.136-1.129A.824.824,0,0,1,238.136,168.266Z" transform="translate(-192.62 -75.397)" fill="#eb996e"/><path d="M240.144,147.75a9.229,9.229,0,0,0-.6-.786,3.371,3.371,0,0,0-.914-.643,1.043,1.043,0,0,0-1.243.164l.036-.114c.093.714.236,1.571.307,2.486a27.678,27.678,0,0,1,.064,2.914A39.681,39.681,0,0,1,237,158.2c-.164.807-.307,1.429-.414,1.907a2.428,2.428,0,0,1-.207.714,23.259,23.259,0,0,1,.357-2.643,51.151,51.151,0,0,0,.714-6.364c0-1.007,0-1.971-.05-2.857s-.179-1.729-.25-2.471v-.064l.036-.05A1.1,1.1,0,0,1,238,146a1.607,1.607,0,0,1,.757.186,3.043,3.043,0,0,1,.936.714,2.814,2.814,0,0,1,.407.643C240.137,147.657,240.159,147.75,240.144,147.75Z" transform="translate(-195.1 -76.61)" fill="#eb996e"/><path d="M240.489,160.073a8.928,8.928,0,0,1-.171-1.114,2.857,2.857,0,0,0-.421-1.171,2.1,2.1,0,0,0-1.379-.714l.193-.143c-.043,1.357-.129,2.986-.3,4.721-.236,2.436-.586,4.636-.886,6.214-.157.786-.3,1.429-.407,1.857a2.422,2.422,0,0,1-.207.671,24.819,24.819,0,0,1,.35-2.579c.243-1.579.55-3.771.779-6.2.171-1.729.279-3.35.357-4.7v-.186l.186.036a2.343,2.343,0,0,1,1.521.886,3.007,3.007,0,0,1,.393,1.286,3.572,3.572,0,0,1-.007,1.136Z" transform="translate(-195.251 -79.676)" fill="#eb996e"/><path d="M236.792,178.794c-.064.079-.464-.221-.514-.786s.279-.943.357-.871-.036.407,0,.836S236.849,178.722,236.792,178.794Z" transform="translate(-195.069 -85.504)" fill="#eb996e"/><path d="M235.342,170.259c-.093.036-.364-.5-.314-1.229s.393-1.221.479-1.171-.071.557-.107,1.2S235.442,170.223,235.342,170.259Z" transform="translate(-194.712 -82.854)" fill="#eb996e"/><path d="M251.713,183.08c-.536-2.857-1.5-11.85-1.657-12.921s-3.071-6.114-4.114-10.8-1.807-13.114-1.807-13.114-2.679-.386-2.714,2.693l1.179,23.821s-1.057,14.771-.364,16.8a8.185,8.185,0,0,0,3.129,3.514l2.264,2.743,6.429-5.714a43.68,43.68,0,0,1-2.343-7.021Z" transform="translate(-196.54 -76.675)" fill="#ffbe9d"/><path d="M251.618,182.989v.114a2.237,2.237,0,0,0,.086.357c.086.321.2.786.386,1.429a54.061,54.061,0,0,0,1.9,5.157v.057l-.05.05-6.379,5.714-.107.093-.086-.107-2.279-2.736h.036a10.492,10.492,0,0,1-1.843-1.514,5.836,5.836,0,0,1-1.364-2.143,12.264,12.264,0,0,1-.229-2.6v-2.679c.079-3.629.293-7.493.564-11.543h0c-.2-3.957-.407-8.15-.621-12.45-.136-2.771-.271-5.486-.4-8.121,0-.664-.064-1.314-.1-1.964a10.614,10.614,0,0,1,0-1.964,2.55,2.55,0,0,1,.964-1.736,2.771,2.771,0,0,1,1.9-.471h.136v.15c.257,2.729.55,5.364.9,7.857a46.821,46.821,0,0,0,1.379,7.086A51.265,51.265,0,0,0,248.767,167c.407.921.829,1.779,1.143,2.664a8.112,8.112,0,0,1,.207,1.364c.05.436.1.864.15,1.279.371,3.343.671,5.993.9,7.814.114.886.207,1.586.271,2.079l.079.536a.715.715,0,0,1,0,.186.878.878,0,0,1-.05-.179,3.693,3.693,0,0,0-.1-.536c-.086-.471-.2-1.164-.336-2.071-.264-1.814-.6-4.464-1-7.8-.05-.414-.107-.843-.157-1.279a9.7,9.7,0,0,0-.207-1.314c-.307-.85-.75-1.721-1.157-2.629a50.922,50.922,0,0,1-2.407-6,47.769,47.769,0,0,1-1.429-7.143q-.521-3.786-.914-7.857l.15.157a2.443,2.443,0,0,0-1.636.407,2.214,2.214,0,0,0-.821,1.507,10,10,0,0,0,0,1.9c0,.643.064,1.3.093,1.957.136,2.643.271,5.357.407,8.121.214,4.286.414,8.486.614,12.443h0c-.279,4.036-.5,7.907-.593,11.521,0,.907-.036,1.793,0,2.664a12.364,12.364,0,0,0,.207,2.514,5.514,5.514,0,0,0,1.279,2,10.4,10.4,0,0,0,1.779,1.479h0l2.264,2.75h-.193l6.429-5.65v.107a47.86,47.86,0,0,1-1.821-5.2,14.3,14.3,0,0,1-.336-1.429l-.064-.364C251.618,183.032,251.61,182.989,251.618,182.989Z" transform="translate(-196.444 -76.585)" fill="#eb996e"/><path d="M241.57,152.244a2.279,2.279,0,0,1,.293-.65,4.416,4.416,0,0,1,.457-.714,1.721,1.721,0,0,1,.95-.664,1.136,1.136,0,0,1,1.221.714,4.685,4.685,0,0,1,.121,1.571c0,1.071.057,2.25.171,3.479a58.119,58.119,0,0,0,.986,6.25,22.293,22.293,0,0,1,.507,2.586,3.05,3.05,0,0,1-.25-.664c-.129-.436-.314-1.071-.514-1.857a43.107,43.107,0,0,1-1.1-6.279,33.838,33.838,0,0,1-.143-3.514,4.535,4.535,0,0,0-.064-1.429.864.864,0,0,0-.886-.571,1.55,1.55,0,0,0-.836.543,5.319,5.319,0,0,0-.5.643A3.122,3.122,0,0,1,241.57,152.244Z" transform="translate(-196.583 -77.811)" fill="#eb996e"/><path d="M242.2,164.851a.957.957,0,0,1-.057-.321,6.134,6.134,0,0,1,0-.914,3.843,3.843,0,0,1,.336-1.393,2.279,2.279,0,0,1,1.429-1.236l.179-.057v.193c.164,1.307.371,2.857.65,4.507.407,2.45.871,4.657,1.229,6.243a24.705,24.705,0,0,1,.543,2.586,2.464,2.464,0,0,1-.257-.664c-.143-.436-.329-1.064-.543-1.857-.421-1.579-.929-3.779-1.336-6.243-.279-1.657-.471-3.214-.607-4.536l.207.136a2.014,2.014,0,0,0-1.279,1.043,3.992,3.992,0,0,0-.386,1.3C242.222,164.4,242.25,164.851,242.2,164.851Z" transform="translate(-196.742 -80.876)" fill="#eb996e"/><path d="M248.47,182.811c-.086-.064.079-.4.079-.829s-.129-.771-.043-.836.429.271.414.843S248.534,182.89,248.47,182.811Z" transform="translate(-198.547 -86.65)" fill="#eb996e"/><path d="M249.248,174.2c-.107,0-.05-.564-.143-1.2s-.279-1.136-.186-1.186.457.414.557,1.136S249.341,174.233,249.248,174.2Z" transform="translate(-198.675 -83.986)" fill="#eb996e"/><g transform="translate(26.38 115.868)" opacity="0.3"><path d="M242.641,214.12c-1.321-1.529-2.993-3.064-5-3.05-1.793,0-3.321,1.25-4.593,2.507a51.771,51.771,0,0,0-9.907,14.371,175.124,175.124,0,0,0-7.621,17.071,20.65,20.65,0,0,0,10.979-6.879,46.2,46.2,0,0,0,6.836-11.221c.643-1.371,1.564-2.964,3.079-3a3.817,3.817,0,0,1,2.729,1.736,44.871,44.871,0,0,1,4.771,8.429,28.847,28.847,0,0,0,5.257,8.1c2.3,2.279,5.493,3.857,8.707,3.5C254.206,234.506,250.356,223.006,242.641,214.12Z" transform="translate(-215.52 -211.07)"/></g><path d="M188.289,158s-9.364,5.9-9.643,17.521.414,42.6,2.493,46.75,3.571,19.086,17.014,12.857c7.536-3.493,15.714-14.829,21.071-24.343a102.861,102.861,0,0,0,6.514-13.829l-12.65-8.157-15.907,18.807-.493-18.086Z" transform="translate(-178.588 -80.039)" fill="#9553ff"/><path d="M201.4,227.405c0,.064-.571.1-1.429.343a9.286,9.286,0,0,0-3.129,1.607,16.758,16.758,0,0,0-2.529,2.507A8.981,8.981,0,0,1,193.34,233a4.693,4.693,0,0,1,.764-1.293,12.7,12.7,0,0,1,2.507-2.643A8.029,8.029,0,0,1,199.9,227.5,3.679,3.679,0,0,1,201.4,227.405Z" transform="translate(-182.803 -99.858)" fill="#263238"/><path d="M201.59,227.072a27.683,27.683,0,0,0-3.729.15,29.41,29.41,0,0,0-3.571,1.007,7.343,7.343,0,0,1,3.529-1.371,7.243,7.243,0,0,1,3.771.214Z" transform="translate(-183.074 -99.668)" fill="#263238"/><path d="M236.34,212.51a1.677,1.677,0,0,1-.107.386l-.386,1.079c-.336.936-.871,2.264-1.571,3.9a91.582,91.582,0,0,1-6.514,12.243,103.415,103.415,0,0,1-8.221,11.171c-1.143,1.357-2.093,2.436-2.771,3.157l-.786.836a2.012,2.012,0,0,1-.293.271,1.685,1.685,0,0,1,.236-.321l.714-.879c.643-.757,1.557-1.857,2.679-3.229a119.006,119.006,0,0,0,8.107-11.207,102.417,102.417,0,0,0,6.586-12.143c.714-1.614,1.307-2.929,1.679-3.85.186-.421.329-.771.45-1.05A1.593,1.593,0,0,1,236.34,212.51Z" transform="translate(-189.188 -95.613)" fill="#263238"/><path d="M203.9,201.723a1.926,1.926,0,0,1,0,.343c0,.257.036.586.057.993q.054,1.35.15,3.729c.107,3.229.25,7.736.421,13.014l-.3-.107,6.957-8.25,8.95-10.55.093-.114.121.079,9.129,5.971,2.55,1.7.664.457a1.158,1.158,0,0,1,.221.171,1.057,1.057,0,0,1-.243-.129l-.714-.414-2.6-1.629-9.193-5.85.207-.036-8.914,10.586-6.979,8.236-.3.343v-.45c-.114-5.286-.214-9.793-.286-13.021,0-1.571-.043-2.857-.057-3.736v-.993a2.188,2.188,0,0,1,.064-.343Z" transform="translate(-185.803 -92.261)" fill="#263238"/><path d="M283.36,152.9s7.914,4.007,8.264,22.614,1.736,40.679,0,44.507c-1.314,2.857-4.4,11.607-10,14.593-1.686.893-2.964.936-5.264.6-7.643-1.114-17.671-10.05-25.293-24.721-5.8-11.164-6.157-16.336-6.157-16.336l10.643-10.714,20.779,25.764.386-24.7Z" transform="translate(-197.537 -78.581)" fill="#9553ff"/><path d="M276.47,197.347v6.464c0,4.171-.057,10.157-.1,17.493v.393l-.243-.307-20.814-25.714h.271l-8.229,8.293-2.414,2.429.05-.171a68.007,68.007,0,0,0,10.321,23.129,60.177,60.177,0,0,0,14.243,14.886,20.092,20.092,0,0,0,3.571,2.143,10.548,10.548,0,0,0,1.8.621,16.015,16.015,0,0,0,1.779.271,9.407,9.407,0,0,0,5.714-1.121,9.242,9.242,0,0,0,2.707-2.557c.25-.343.436-.621.55-.807a1.954,1.954,0,0,1,.193-.271,10.458,10.458,0,0,1-.714,1.121,8.993,8.993,0,0,1-2.686,2.636,9.536,9.536,0,0,1-5.814,1.2c-.579-.071-1.186-.121-1.807-.257a10.405,10.405,0,0,1-1.843-.629,19.749,19.749,0,0,1-3.614-2.143,59.936,59.936,0,0,1-14.371-14.9,68.022,68.022,0,0,1-10.4-23.264v-.1l.071-.071,2.414-2.436,8.236-8.286.143-.15.129.164c7.857,9.771,15,18.636,20.714,25.793l-.25.086c.1-7.336.171-13.314.229-17.486.036-2.064.064-3.671.086-4.786v-1.25A3.891,3.891,0,0,1,276.47,197.347Z" transform="translate(-197.454 -90.679)" fill="#263238"/><path d="M297.4,241.363a13.62,13.62,0,0,1-1.071-1.536,33.723,33.723,0,0,0-2.786-3.529,42.507,42.507,0,0,0-3.207-3.15,11.221,11.221,0,0,1-1.379-1.279,7.984,7.984,0,0,1,1.543,1.079,27.443,27.443,0,0,1,3.321,3.1,24.282,24.282,0,0,1,2.729,3.636A6.935,6.935,0,0,1,297.4,241.363Z" transform="translate(-210.123 -101.144)" fill="#263238"/><path d="M295.092,158.12c.05.043-.571.807-1.429,2.143a28.514,28.514,0,0,0-4.336,11.493c-.229,1.571-.271,2.557-.336,2.557a2.858,2.858,0,0,1-.036-.714,16.514,16.514,0,0,1,.114-1.893A24.785,24.785,0,0,1,293.45,160.1a17.2,17.2,0,0,1,1.164-1.493,2.572,2.572,0,0,1,.479-.486Z" transform="translate(-210.119 -80.073)" fill="#263238"/><path d="M199.493,178.22c-.057,0-.186-.95-.471-2.486a53.612,53.612,0,0,0-1.429-5.921,56.606,56.606,0,0,0-2.1-5.714,24.608,24.608,0,0,1-.993-2.329,2.571,2.571,0,0,1,.371.571c.221.379.514.943.857,1.65a40.507,40.507,0,0,1,2.221,5.714,41.428,41.428,0,0,1,1.336,5.986c.107.779.171,1.429.2,1.843A2.3,2.3,0,0,1,199.493,178.22Z" transform="translate(-183.134 -81.116)" fill="#263238"/><g transform="translate(78.787 130.719)" opacity="0.3"><path d="M298.419,241.31a7.693,7.693,0,0,0-2.25-3.929,26.836,26.836,0,0,0-7.279-5.521,39.284,39.284,0,0,1,8.607,9.6c.179.286.529.607.793.4A.571.571,0,0,0,298.419,241.31Z" transform="translate(-288.89 -231.86)"/></g><g transform="translate(7.594 127.414)" opacity="0.3"><path d="M200.084,227.345a9.864,9.864,0,0,0-10.607,6.014,2.75,2.75,0,0,0-.257,1.186,1.107,1.107,0,0,0,.636.964,1.15,1.15,0,0,0,1.243-.414,4.328,4.328,0,0,0,.643-1.236,10.821,10.821,0,0,1,8.8-6.5Z" transform="translate(-189.22 -227.233)"/></g></g><line x2="262" transform="translate(58.5 351.988)" fill="none" stroke="#707070" stroke-width="1" opacity="0.3"/></g></svg>